<svg xmlns="http://www.w3.org/2000/svg" width="512" height="512" viewBox="0 0 512 512" fill="none">
<rect x="0" y="0" width="512" height="512" rx="84" fill="#050505"/>
<path d="M 265.97 375.53 L 266.20 376.69 L 298.67 376.92 L 299.37 375.76 L 290.56 365.32 L 281.05 356.97 L 279.66 356.97 Z M 246.96 375.76 L 239.30 364.39 L 233.74 357.20 L 232.34 356.74 L 226.55 361.61 L 214.72 374.83 L 214.49 376.22 L 215.18 376.92 L 246.03 376.92 Z M 416.03 242.63 L 413.94 243.79 L 405.59 254.69 L 400.95 259.56 L 370.57 296.44 L 331.37 341.43 L 328.36 352.10 L 320.01 375.06 L 320.24 376.69 L 345.75 376.92 L 347.84 375.29 L 413.71 250.75 L 416.49 244.72 Z M 95.28 242.87 L 95.74 245.42 L 106.87 265.36 L 141.20 330.76 L 164.62 372.97 L 165.32 375.29 L 166.71 376.69 L 193.15 376.69 L 192.92 374.83 L 188.74 365.32 L 188.28 362.54 L 187.35 361.15 L 180.63 340.51 L 98.06 243.79 L 96.44 242.63 Z M 348.30 219.21 L 347.15 219.44 L 345.52 221.53 L 335.32 240.32 L 287.77 334.94 L 286.85 340.74 L 287.31 342.82 L 297.98 353.49 L 307.25 364.63 L 308.65 363.00 L 309.11 360.68 L 313.28 352.33 L 318.15 345.61 L 342.97 248.20 L 348.07 225.70 Z M 164.16 219.44 L 166.25 233.36 L 182.94 298.06 L 188.51 322.88 L 193.61 340.51 L 193.85 343.98 L 200.34 356.04 L 202.66 362.54 L 203.12 366.02 L 204.75 366.71 L 213.56 355.35 L 225.39 343.06 L 225.15 337.26 L 210.54 306.18 L 208.46 302.93 L 191.06 266.99 L 183.64 253.77 L 180.63 246.81 L 166.01 219.44 Z M 358.51 188.36 L 346.91 199.96 L 347.15 204.37 L 349.70 212.72 L 351.09 212.95 L 360.36 206.22 L 359.90 192.08 L 359.44 189.29 Z M 154.19 188.36 L 153.26 189.06 L 152.56 206.22 L 156.27 209.24 L 161.84 212.72 L 162.77 212.72 L 164.85 208.08 L 166.01 200.42 L 155.81 189.06 Z M 255.54 182.10 L 254.61 184.19 L 251.59 205.99 L 247.42 246.58 L 245.10 263.04 L 239.77 319.17 L 239.53 326.82 L 238.61 331.46 L 238.14 341.90 L 254.38 366.94 L 255.54 368.10 L 256.46 368.10 L 274.55 342.36 L 275.02 340.51 L 269.92 286.24 L 268.99 282.29 L 267.36 262.35 L 261.10 209.24 L 257.62 184.65 L 256.70 182.10 Z M 256.23 146.85 L 254.61 148.24 L 251.36 156.36 L 247.88 162.85 L 247.88 164.48 L 248.81 166.33 L 255.54 175.15 L 256.93 174.68 L 264.35 164.48 L 264.35 162.85 Z" fill="#a18048" fill-rule="evenodd"/>
</svg>
