<svg xmlns="http://www.w3.org/2000/svg" width="512" height="512" viewBox="0 0 512 512" fill="none">
  <rect width="512" height="512" rx="84" fill="#050505"/>
  <rect x="28" y="28" width="456" height="456" rx="62" fill="none" stroke="#a18048" stroke-width="18"/>
  <path d="M 264.44 356.12 L 264.64 357.10 L 292.13 357.29 L 292.72 356.31 L 285.26 347.48 L 277.21 340.41 L 276.03 340.41 Z M 248.34 356.31 L 241.86 346.69 L 237.15 340.60 L 235.97 340.21 L 231.06 344.33 L 221.05 355.53 L 220.85 356.70 L 221.44 357.29 L 247.56 357.29 Z M 391.48 243.60 L 389.72 244.59 L 382.65 253.81 L 378.72 257.94 L 353.00 289.16 L 319.81 327.25 L 317.26 336.28 L 310.19 355.72 L 310.39 357.10 L 331.99 357.29 L 333.76 355.92 L 389.52 250.48 L 391.88 245.37 Z M 119.93 243.80 L 120.32 245.96 L 129.74 262.85 L 158.81 318.22 L 178.64 353.96 L 179.23 355.92 L 180.40 357.10 L 202.79 357.10 L 202.59 355.53 L 199.06 347.48 L 198.66 345.12 L 197.88 343.94 L 192.19 326.47 L 122.28 244.59 L 120.91 243.60 Z M 334.15 223.77 L 333.17 223.97 L 331.79 225.74 L 323.15 241.64 L 282.90 321.75 L 282.12 326.66 L 282.51 328.43 L 291.54 337.46 L 299.39 346.89 L 300.57 345.51 L 300.96 343.55 L 304.50 336.48 L 308.62 330.79 L 329.63 248.32 L 333.95 229.27 Z M 178.24 223.97 L 180.01 235.75 L 194.15 290.53 L 198.86 311.54 L 203.18 326.47 L 203.38 329.41 L 208.88 339.62 L 210.84 345.12 L 211.23 348.06 L 212.61 348.65 L 220.07 339.03 L 230.08 328.63 L 229.88 323.72 L 217.51 297.41 L 215.75 294.66 L 201.02 264.22 L 194.74 253.03 L 192.19 247.14 L 179.81 223.97 Z M 342.79 197.66 L 332.97 207.48 L 333.17 211.21 L 335.33 218.27 L 336.50 218.47 L 344.36 212.78 L 343.97 200.80 L 343.57 198.44 Z M 169.80 197.66 L 169.02 198.25 L 168.43 212.78 L 171.57 215.33 L 176.28 218.27 L 177.07 218.27 L 178.83 214.35 L 179.81 207.87 L 171.18 198.25 Z M 255.61 192.36 L 254.82 194.12 L 252.27 212.58 L 248.73 246.94 L 246.77 260.88 L 242.26 308.40 L 242.06 314.88 L 241.27 318.81 L 240.88 327.64 L 254.63 348.85 L 255.61 349.83 L 256.39 349.83 L 271.71 328.04 L 272.10 326.47 L 267.78 280.52 L 267.00 277.18 L 265.62 260.29 L 260.32 215.33 L 257.37 194.52 L 256.59 192.36 Z M 256.20 162.51 L 254.82 163.69 L 252.07 170.56 L 249.13 176.06 L 249.13 177.43 L 249.91 179.00 L 255.61 186.47 L 256.79 186.07 L 263.07 177.43 L 263.07 176.06 Z" fill="#fffaf0" fill-rule="evenodd"/>
</svg>
