<svg xmlns="http://www.w3.org/2000/svg" width="1855" height="1769" viewBox="0 0 1855 1769" fill="none">
<path d="M 873.00 1731.00 L 868.00 1738.00 L 871.00 1743.00 L 875.00 1744.00 L 881.00 1736.00 Z M 1185.00 1675.00 L 1160.00 1707.00 L 1159.00 1712.00 L 1151.00 1719.00 L 1151.00 1722.00 L 1156.00 1724.00 L 1177.00 1724.00 L 1180.00 1728.00 L 1180.00 1741.00 L 1189.00 1743.00 L 1191.00 1741.00 L 1192.00 1726.00 L 1198.00 1721.00 L 1191.00 1713.00 L 1190.00 1677.00 Z M 1179.00 1700.00 L 1178.00 1716.00 L 1166.00 1717.00 L 1163.00 1712.00 L 1170.00 1702.00 L 1175.00 1699.00 Z M 796.00 1677.00 L 794.00 1679.00 L 795.00 1686.00 L 810.00 1682.00 L 819.00 1685.00 L 819.00 1741.00 L 832.00 1741.00 L 830.00 1731.00 L 831.00 1686.00 L 835.00 1682.00 L 851.00 1683.00 L 851.00 1679.00 L 844.00 1675.00 Z M 671.00 1675.00 L 666.00 1679.00 L 666.00 1740.00 L 668.00 1742.00 L 697.00 1743.00 L 704.00 1738.00 L 703.00 1734.00 L 683.00 1737.00 L 679.00 1733.00 L 679.00 1714.00 L 682.00 1711.00 L 700.00 1712.00 L 699.00 1703.00 L 681.00 1704.00 L 679.00 1685.00 L 683.00 1681.00 L 699.00 1685.00 L 701.00 1679.00 L 698.00 1676.00 L 683.00 1679.00 Z M 1035.00 1674.00 L 1024.00 1678.00 L 1018.00 1685.00 L 1014.00 1696.00 L 1014.00 1717.00 L 1018.00 1732.00 L 1025.00 1740.00 L 1033.00 1743.00 L 1043.00 1743.00 L 1051.00 1740.00 L 1062.00 1725.00 L 1062.00 1696.00 L 1057.00 1684.00 L 1051.00 1678.00 L 1042.00 1674.00 Z M 1038.00 1680.00 L 1047.00 1687.00 L 1051.00 1707.00 L 1047.00 1731.00 L 1040.00 1739.00 L 1037.00 1739.00 L 1030.00 1732.00 L 1025.00 1712.00 L 1026.00 1694.00 L 1029.00 1686.00 Z M 763.00 1675.00 L 750.00 1674.00 L 741.00 1678.00 L 735.00 1686.00 L 736.00 1701.00 L 759.00 1724.00 L 758.00 1732.00 L 753.00 1737.00 L 746.00 1737.00 L 739.00 1731.00 L 733.00 1732.00 L 732.00 1738.00 L 738.00 1744.00 L 755.00 1744.00 L 764.00 1740.00 L 770.00 1732.00 L 768.00 1714.00 L 761.00 1706.00 L 749.00 1699.00 L 743.00 1691.00 L 743.00 1687.00 L 752.00 1681.00 L 765.00 1686.00 L 768.00 1685.00 L 769.00 1680.00 Z M 1096.00 1674.00 L 1087.00 1679.00 L 1085.00 1688.00 L 1090.00 1688.00 L 1099.00 1680.00 L 1103.00 1680.00 L 1113.00 1686.00 L 1116.00 1697.00 L 1112.00 1709.00 L 1086.00 1736.00 L 1086.00 1741.00 L 1088.00 1743.00 L 1122.00 1743.00 L 1129.00 1735.00 L 1127.00 1729.00 L 1114.00 1734.00 L 1108.00 1734.00 L 1106.00 1729.00 L 1118.00 1717.00 L 1125.00 1705.00 L 1127.00 1698.00 L 1126.00 1686.00 L 1118.00 1677.00 L 1112.00 1674.00 Z M 959.00 1674.00 L 950.00 1680.00 L 950.00 1685.00 L 965.00 1678.00 L 976.00 1686.00 L 978.00 1701.00 L 967.00 1721.00 L 951.00 1734.00 L 949.00 1740.00 L 962.00 1743.00 L 985.00 1742.00 L 990.00 1738.00 L 989.00 1731.00 L 970.00 1735.00 L 966.00 1730.00 L 983.00 1713.00 L 989.00 1699.00 L 989.00 1690.00 L 984.00 1681.00 L 978.00 1676.00 L 970.00 1673.00 Z M 990.00 1587.00 L 992.00 1593.00 L 1414.00 1591.00 L 1413.00 1588.00 Z M 870.00 1589.00 L 866.00 1586.00 L 470.00 1587.00 L 449.00 1591.00 L 864.00 1594.00 Z M 928.00 1563.00 L 900.00 1588.00 L 900.00 1591.00 L 925.00 1616.00 L 932.00 1617.00 L 957.00 1591.00 L 957.00 1588.00 L 933.00 1564.00 Z M 549.00 1120.00 L 549.00 1129.00 L 552.00 1132.00 L 1290.00 1133.00 L 1313.00 1132.00 L 1317.00 1125.00 L 1307.00 1086.00 L 1306.00 1070.00 L 1302.00 1066.00 L 560.00 1066.00 L 555.00 1074.00 L 553.00 1105.00 Z M 973.00 1010.00 L 974.00 1015.00 L 1114.00 1016.00 L 1117.00 1011.00 L 1079.00 966.00 L 1038.00 930.00 L 1032.00 930.00 Z M 891.00 1011.00 L 858.00 962.00 L 834.00 931.00 L 828.00 929.00 L 803.00 950.00 L 752.00 1007.00 L 751.00 1013.00 L 754.00 1016.00 L 890.00 1015.00 Z M 1620.00 437.00 L 1611.00 442.00 L 1575.00 489.00 L 1555.00 510.00 L 1424.00 669.00 L 1359.00 742.00 L 1315.00 796.00 L 1255.00 863.00 L 1242.00 909.00 L 1206.00 1008.00 L 1207.00 1015.00 L 1317.00 1016.00 L 1326.00 1009.00 L 1330.00 998.00 L 1367.00 933.00 L 1526.00 633.00 L 1555.00 574.00 L 1566.00 557.00 L 1590.00 506.00 L 1610.00 472.00 L 1622.00 446.00 Z M 237.00 438.00 L 239.00 449.00 L 287.00 535.00 L 296.00 556.00 L 435.00 817.00 L 536.00 999.00 L 539.00 1009.00 L 545.00 1015.00 L 659.00 1015.00 L 658.00 1007.00 L 640.00 966.00 L 638.00 954.00 L 634.00 948.00 L 627.00 921.00 L 605.00 859.00 L 249.00 442.00 L 242.00 437.00 Z M 1328.00 336.00 L 1323.00 337.00 L 1316.00 346.00 L 1288.00 401.00 L 1272.00 427.00 L 1067.00 835.00 L 1063.00 860.00 L 1065.00 869.00 L 1111.00 915.00 L 1143.00 956.00 L 1151.00 963.00 L 1157.00 956.00 L 1159.00 946.00 L 1177.00 910.00 L 1198.00 881.00 L 1233.00 738.00 L 1242.00 711.00 L 1244.00 695.00 L 1254.00 665.00 L 1255.00 653.00 L 1272.00 584.00 L 1282.00 553.00 L 1289.00 518.00 L 1305.00 461.00 L 1312.00 422.00 L 1327.00 364.00 Z M 534.00 337.00 L 537.00 369.00 L 543.00 397.00 L 547.00 406.00 L 583.00 557.00 L 587.00 565.00 L 600.00 625.00 L 615.00 676.00 L 617.00 693.00 L 632.00 745.00 L 639.00 783.00 L 643.00 791.00 L 646.00 810.00 L 661.00 859.00 L 662.00 874.00 L 690.00 926.00 L 700.00 954.00 L 702.00 969.00 L 709.00 972.00 L 747.00 923.00 L 798.00 870.00 L 797.00 845.00 L 734.00 711.00 L 725.00 697.00 L 650.00 542.00 L 618.00 485.00 L 605.00 455.00 L 579.00 410.00 L 542.00 337.00 Z M 1372.00 203.00 L 1322.00 253.00 L 1323.00 272.00 L 1334.00 308.00 L 1340.00 309.00 L 1380.00 280.00 L 1378.00 219.00 L 1376.00 207.00 Z M 491.00 203.00 L 487.00 206.00 L 484.00 280.00 L 500.00 293.00 L 524.00 308.00 L 528.00 308.00 L 537.00 288.00 L 538.00 276.00 L 542.00 267.00 L 542.00 255.00 L 498.00 206.00 Z M 928.00 176.00 L 924.00 185.00 L 916.00 255.00 L 911.00 279.00 L 904.00 357.00 L 895.00 417.00 L 893.00 454.00 L 883.00 525.00 L 871.00 645.00 L 871.00 666.00 L 867.00 688.00 L 864.00 742.00 L 860.00 767.00 L 859.00 800.00 L 855.00 820.00 L 853.00 865.00 L 923.00 973.00 L 928.00 978.00 L 932.00 978.00 L 965.00 933.00 L 1003.00 874.00 L 1010.00 867.00 L 1012.00 859.00 L 990.00 625.00 L 986.00 608.00 L 979.00 522.00 L 970.00 457.00 L 969.00 434.00 L 963.00 401.00 L 962.00 375.00 L 958.00 356.00 L 952.00 293.00 L 937.00 187.00 L 933.00 176.00 Z M 931.00 24.00 L 924.00 30.00 L 910.00 65.00 L 895.00 93.00 L 895.00 100.00 L 899.00 108.00 L 928.00 146.00 L 934.00 144.00 L 966.00 100.00 L 966.00 93.00 Z" fill="#a18048" fill-rule="evenodd"/>
<path d="M 1683.00 1365.00 L 1679.00 1367.00 L 1680.00 1372.00 L 1687.00 1380.00 L 1687.00 1469.00 L 1683.00 1476.00 L 1679.00 1479.00 L 1679.00 1485.00 L 1717.00 1486.00 L 1719.00 1480.00 L 1710.00 1473.00 L 1708.00 1466.00 L 1708.00 1380.00 L 1710.00 1375.00 L 1717.00 1369.00 L 1712.00 1365.00 Z M 727.00 1365.00 L 724.00 1371.00 L 724.00 1467.00 L 722.00 1473.00 L 715.00 1479.00 L 714.00 1483.00 L 718.00 1486.00 L 747.00 1486.00 L 751.00 1483.00 L 750.00 1479.00 L 739.00 1469.00 L 737.00 1403.00 L 740.00 1401.00 L 775.00 1436.00 L 778.00 1437.00 L 779.00 1440.00 L 795.00 1454.00 L 796.00 1457.00 L 803.00 1464.00 L 805.00 1464.00 L 812.00 1473.00 L 817.00 1476.00 L 826.00 1486.00 L 831.00 1486.00 L 834.00 1482.00 L 835.00 1378.00 L 844.00 1370.00 L 844.00 1368.00 L 840.00 1365.00 L 814.00 1365.00 L 809.00 1368.00 L 810.00 1372.00 L 816.00 1373.00 L 820.00 1378.00 L 819.00 1450.00 L 816.00 1449.00 L 815.00 1446.00 L 807.00 1440.00 L 787.00 1418.00 L 764.00 1397.00 L 759.00 1390.00 L 737.00 1369.00 L 736.00 1366.00 Z M 640.00 1365.00 L 636.00 1370.00 L 642.00 1373.00 L 645.00 1378.00 L 646.00 1465.00 L 643.00 1475.00 L 636.00 1481.00 L 636.00 1483.00 L 640.00 1486.00 L 674.00 1486.00 L 678.00 1484.00 L 677.00 1479.00 L 672.00 1477.00 L 667.00 1469.00 L 667.00 1378.00 L 670.00 1373.00 L 674.00 1372.00 L 675.00 1368.00 L 671.00 1365.00 Z M 524.00 1366.00 L 522.00 1368.00 L 523.00 1372.00 L 528.00 1373.00 L 534.00 1380.00 L 535.00 1456.00 L 534.00 1469.00 L 522.00 1481.00 L 523.00 1485.00 L 571.00 1487.00 L 598.00 1486.00 L 606.00 1473.00 L 605.00 1463.00 L 600.00 1462.00 L 589.00 1473.00 L 560.00 1473.00 L 555.00 1467.00 L 555.00 1378.00 L 559.00 1373.00 L 561.00 1373.00 L 563.00 1367.00 L 559.00 1365.00 Z M 1567.00 1366.00 L 1564.00 1370.00 L 1574.00 1375.00 L 1576.00 1380.00 L 1576.00 1470.00 L 1566.00 1480.00 L 1567.00 1485.00 L 1627.00 1487.00 L 1640.00 1485.00 L 1645.00 1480.00 L 1648.00 1469.00 L 1647.00 1463.00 L 1645.00 1462.00 L 1640.00 1463.00 L 1638.00 1468.00 L 1632.00 1473.00 L 1603.00 1473.00 L 1597.00 1467.00 L 1596.00 1382.00 L 1598.00 1376.00 L 1605.00 1372.00 L 1605.00 1366.00 L 1601.00 1364.00 Z M 1456.00 1365.00 L 1453.00 1368.00 L 1454.00 1372.00 L 1460.00 1374.00 L 1463.00 1378.00 L 1463.00 1470.00 L 1454.00 1483.00 L 1458.00 1486.00 L 1523.00 1487.00 L 1530.00 1484.00 L 1536.00 1466.00 L 1535.00 1462.00 L 1527.00 1463.00 L 1525.00 1468.00 L 1519.00 1473.00 L 1509.00 1474.00 L 1491.00 1473.00 L 1483.00 1465.00 L 1483.00 1379.00 L 1493.00 1370.00 L 1493.00 1368.00 L 1490.00 1365.00 Z M 386.00 1368.00 L 387.00 1372.00 L 394.00 1375.00 L 396.00 1379.00 L 396.00 1470.00 L 388.00 1480.00 L 387.00 1483.00 L 389.00 1485.00 L 426.00 1485.00 L 426.00 1479.00 L 424.00 1479.00 L 418.00 1471.00 L 418.00 1438.00 L 420.00 1436.00 L 436.00 1437.00 L 458.00 1468.00 L 472.00 1481.00 L 479.00 1485.00 L 507.00 1485.00 L 507.00 1479.00 L 491.00 1473.00 L 481.00 1466.00 L 466.00 1449.00 L 458.00 1435.00 L 454.00 1432.00 L 455.00 1425.00 L 458.00 1424.00 L 470.00 1408.00 L 472.00 1400.00 L 470.00 1383.00 L 461.00 1372.00 L 446.00 1365.00 L 392.00 1365.00 Z M 422.00 1376.00 L 434.00 1377.00 L 442.00 1380.00 L 450.00 1393.00 L 450.00 1412.00 L 439.00 1425.00 L 422.00 1424.00 L 418.00 1420.00 L 418.00 1379.00 Z M 272.00 1366.00 L 272.00 1372.00 L 277.00 1374.00 L 281.00 1380.00 L 280.00 1469.00 L 279.00 1473.00 L 273.00 1480.00 L 273.00 1485.00 L 309.00 1487.00 L 338.00 1487.00 L 344.00 1485.00 L 351.00 1472.00 L 351.00 1464.00 L 349.00 1462.00 L 344.00 1462.00 L 339.00 1469.00 L 333.00 1473.00 L 310.00 1473.00 L 304.00 1469.00 L 302.00 1465.00 L 302.00 1431.00 L 312.00 1427.00 L 326.00 1428.00 L 334.00 1434.00 L 340.00 1433.00 L 341.00 1417.00 L 339.00 1413.00 L 328.00 1415.00 L 306.00 1415.00 L 302.00 1413.00 L 301.00 1408.00 L 302.00 1380.00 L 304.00 1378.00 L 330.00 1378.00 L 338.00 1385.00 L 343.00 1385.00 L 345.00 1383.00 L 345.00 1368.00 L 339.00 1364.00 L 277.00 1364.00 Z M 1820.00 1365.00 L 1807.00 1362.00 L 1791.00 1362.00 L 1777.00 1367.00 L 1769.00 1373.00 L 1763.00 1381.00 L 1761.00 1391.00 L 1763.00 1407.00 L 1771.00 1418.00 L 1784.00 1429.00 L 1799.00 1438.00 L 1809.00 1450.00 L 1811.00 1457.00 L 1810.00 1464.00 L 1807.00 1469.00 L 1794.00 1475.00 L 1785.00 1475.00 L 1776.00 1472.00 L 1770.00 1467.00 L 1765.00 1457.00 L 1759.00 1457.00 L 1757.00 1462.00 L 1758.00 1479.00 L 1763.00 1485.00 L 1775.00 1487.00 L 1803.00 1486.00 L 1818.00 1477.00 L 1825.00 1469.00 L 1830.00 1459.00 L 1830.00 1445.00 L 1822.00 1430.00 L 1809.00 1418.00 L 1794.00 1409.00 L 1779.00 1392.00 L 1779.00 1383.00 L 1789.00 1374.00 L 1806.00 1374.00 L 1819.00 1388.00 L 1823.00 1389.00 L 1826.00 1385.00 L 1826.00 1370.00 Z M 1327.00 1366.00 L 1307.00 1378.00 L 1295.00 1392.00 L 1287.00 1412.00 L 1286.00 1424.00 L 1287.00 1438.00 L 1291.00 1451.00 L 1303.00 1469.00 L 1319.00 1481.00 L 1339.00 1487.00 L 1372.00 1486.00 L 1396.00 1473.00 L 1407.00 1461.00 L 1414.00 1449.00 L 1415.00 1443.00 L 1419.00 1436.00 L 1418.00 1407.00 L 1407.00 1386.00 L 1393.00 1373.00 L 1379.00 1366.00 L 1368.00 1365.00 L 1360.00 1362.00 L 1347.00 1362.00 Z M 1341.00 1374.00 L 1361.00 1374.00 L 1378.00 1382.00 L 1387.00 1392.00 L 1395.00 1410.00 L 1396.00 1433.00 L 1394.00 1449.00 L 1382.00 1467.00 L 1367.00 1474.00 L 1345.00 1474.00 L 1328.00 1467.00 L 1318.00 1456.00 L 1312.00 1445.00 L 1309.00 1418.00 L 1313.00 1396.00 L 1326.00 1380.00 Z M 900.00 1374.00 L 883.00 1393.00 L 876.00 1408.00 L 875.00 1436.00 L 883.00 1458.00 L 899.00 1474.00 L 912.00 1481.00 L 916.00 1481.00 L 927.00 1486.00 L 946.00 1488.00 L 967.00 1487.00 L 976.00 1485.00 L 986.00 1480.00 L 990.00 1475.00 L 989.00 1438.00 L 998.00 1428.00 L 996.00 1423.00 L 961.00 1423.00 L 959.00 1428.00 L 968.00 1437.00 L 967.00 1470.00 L 962.00 1474.00 L 940.00 1474.00 L 928.00 1471.00 L 918.00 1466.00 L 906.00 1453.00 L 898.00 1432.00 L 897.00 1414.00 L 901.00 1395.00 L 914.00 1380.00 L 931.00 1374.00 L 955.00 1374.00 L 973.00 1380.00 L 982.00 1393.00 L 988.00 1392.00 L 989.00 1390.00 L 989.00 1374.00 L 987.00 1370.00 L 982.00 1366.00 L 963.00 1365.00 L 953.00 1362.00 L 939.00 1362.00 L 915.00 1366.00 Z M 137.00 1363.00 L 131.00 1372.00 L 131.00 1384.00 L 137.00 1385.00 L 147.00 1378.00 L 173.00 1378.00 L 175.00 1380.00 L 175.00 1471.00 L 166.00 1483.00 L 171.00 1486.00 L 206.00 1485.00 L 208.00 1481.00 L 200.00 1475.00 L 197.00 1469.00 L 197.00 1381.00 L 200.00 1378.00 L 222.00 1378.00 L 230.00 1384.00 L 238.00 1384.00 L 239.00 1367.00 L 235.00 1364.00 L 150.00 1365.00 L 141.00 1362.00 Z M 1112.00 1344.00 L 1110.00 1346.00 L 1111.00 1351.00 L 1120.00 1359.00 L 1121.00 1405.00 L 1120.00 1469.00 L 1110.00 1481.00 L 1111.00 1485.00 L 1154.00 1485.00 L 1154.00 1479.00 L 1151.00 1479.00 L 1143.00 1469.00 L 1143.00 1416.00 L 1147.00 1413.00 L 1216.00 1414.00 L 1218.00 1416.00 L 1218.00 1462.00 L 1215.00 1472.00 L 1207.00 1480.00 L 1208.00 1485.00 L 1237.00 1487.00 L 1250.00 1485.00 L 1250.00 1479.00 L 1245.00 1477.00 L 1239.00 1464.00 L 1240.00 1358.00 L 1250.00 1349.00 L 1250.00 1346.00 L 1246.00 1343.00 L 1211.00 1343.00 L 1207.00 1345.00 L 1207.00 1349.00 L 1217.00 1357.00 L 1219.00 1397.00 L 1216.00 1400.00 L 1145.00 1401.00 L 1142.00 1397.00 L 1143.00 1358.00 L 1152.00 1348.00 L 1151.00 1344.00 Z M 94.00 1344.00 L 72.00 1341.00 L 54.00 1343.00 L 41.00 1350.00 L 32.00 1362.00 L 29.00 1370.00 L 29.00 1385.00 L 35.00 1400.00 L 48.00 1413.00 L 65.00 1425.00 L 79.00 1439.00 L 84.00 1449.00 L 84.00 1458.00 L 79.00 1467.00 L 69.00 1474.00 L 60.00 1475.00 L 47.00 1473.00 L 37.00 1465.00 L 34.00 1454.00 L 28.00 1454.00 L 24.00 1459.00 L 26.00 1477.00 L 34.00 1485.00 L 44.00 1487.00 L 71.00 1487.00 L 86.00 1480.00 L 97.00 1469.00 L 102.00 1459.00 L 104.00 1445.00 L 102.00 1435.00 L 97.00 1426.00 L 86.00 1413.00 L 54.00 1388.00 L 49.00 1380.00 L 48.00 1366.00 L 52.00 1359.00 L 63.00 1353.00 L 74.00 1353.00 L 84.00 1357.00 L 91.00 1368.00 L 96.00 1371.00 L 99.00 1366.00 L 98.00 1347.00 Z" fill="#111111" fill-rule="evenodd"/>
</svg>
