<svg xmlns="http://www.w3.org/2000/svg" width="512" height="512" viewBox="0 0 512 512" fill="none">
<circle cx="256.0" cy="256.0" r="256.0" fill="#0d2a1c"/>
<path d="M 265.90 374.70 L 266.13 375.85 L 298.36 376.08 L 299.05 374.93 L 290.31 364.57 L 280.87 356.28 L 279.48 356.28 Z M 247.02 374.93 L 239.42 363.65 L 233.90 356.51 L 232.52 356.05 L 226.76 360.89 L 215.02 374.01 L 214.79 375.39 L 215.48 376.08 L 246.10 376.08 Z M 414.86 242.78 L 412.79 243.93 L 404.50 254.75 L 399.90 259.58 L 369.74 296.19 L 330.83 340.86 L 327.83 351.45 L 319.55 374.24 L 319.78 375.85 L 345.10 376.08 L 347.17 374.47 L 412.56 250.83 L 415.32 244.85 Z M 96.44 243.01 L 96.91 245.54 L 107.96 265.34 L 142.03 330.27 L 165.29 372.17 L 165.98 374.47 L 167.36 375.85 L 193.61 375.85 L 193.38 374.01 L 189.23 364.57 L 188.77 361.81 L 187.85 360.43 L 181.17 339.94 L 99.21 243.93 L 97.60 242.78 Z M 347.63 219.52 L 346.48 219.75 L 344.87 221.82 L 334.74 240.47 L 287.54 334.41 L 286.62 340.17 L 287.08 342.24 L 297.67 352.83 L 306.88 363.88 L 308.26 362.27 L 308.72 359.97 L 312.87 351.68 L 317.70 345.00 L 342.34 248.30 L 347.40 225.97 Z M 164.83 219.75 L 166.90 233.57 L 183.47 297.80 L 189.00 322.44 L 194.07 339.94 L 194.30 343.39 L 200.74 355.36 L 203.05 361.81 L 203.51 365.26 L 205.12 365.95 L 213.87 354.67 L 225.61 342.47 L 225.38 336.71 L 210.87 305.86 L 208.80 302.64 L 191.53 266.95 L 184.17 253.83 L 181.17 246.92 L 166.67 219.75 Z M 357.77 188.90 L 346.25 200.41 L 346.48 204.79 L 349.02 213.07 L 350.40 213.30 L 359.61 206.63 L 359.15 192.58 L 358.69 189.82 Z M 154.93 188.90 L 154.00 189.59 L 153.31 206.63 L 157.00 209.62 L 162.52 213.07 L 163.44 213.07 L 165.52 208.47 L 166.67 200.87 L 156.54 189.59 Z M 255.54 182.68 L 254.62 184.76 L 251.63 206.40 L 247.48 246.69 L 245.18 263.04 L 239.88 318.75 L 239.65 326.35 L 238.73 330.96 L 238.27 341.32 L 254.39 366.18 L 255.54 367.33 L 256.46 367.33 L 274.42 341.78 L 274.88 339.94 L 269.81 286.06 L 268.89 282.15 L 267.28 262.35 L 261.07 209.62 L 257.61 185.22 L 256.69 182.68 Z M 256.23 147.69 L 254.62 149.07 L 251.40 157.13 L 247.94 163.57 L 247.94 165.18 L 248.86 167.03 L 255.54 175.78 L 256.92 175.32 L 264.29 165.18 L 264.29 163.57 Z" fill="#a18048" fill-rule="evenodd"/>
</svg>
