<svg xmlns="http://www.w3.org/2000/svg" width="430" height="96" viewBox="0 0 430 96" fill="none" role="img" aria-labelledby="title">
  <title id="title">Sterling Hollis</title>
  <svg x="0" y="8" width="88" height="72" viewBox="0 0 1426 1033" preserveAspectRatio="xMidYMid meet" aria-hidden="true">
    <path d="M 756.00 1006.00 L 757.00 1011.00 L 897.00 1012.00 L 900.00 1007.00 L 862.00 962.00 L 821.00 926.00 L 815.00 926.00 Z M 674.00 1007.00 L 641.00 958.00 L 617.00 927.00 L 611.00 925.00 L 586.00 946.00 L 535.00 1003.00 L 534.00 1009.00 L 537.00 1012.00 L 670.00 1012.00 Z M 1403.00 433.00 L 1394.00 438.00 L 1358.00 485.00 L 1338.00 506.00 L 1207.00 665.00 L 1038.00 859.00 L 1025.00 905.00 L 989.00 1004.00 L 990.00 1011.00 L 1100.00 1012.00 L 1109.00 1005.00 L 1393.00 468.00 L 1405.00 442.00 Z M 20.00 434.00 L 22.00 445.00 L 70.00 531.00 L 218.00 813.00 L 319.00 995.00 L 322.00 1005.00 L 328.00 1011.00 L 442.00 1011.00 L 441.00 1003.00 L 423.00 962.00 L 421.00 950.00 L 417.00 944.00 L 388.00 855.00 L 32.00 438.00 L 25.00 433.00 Z M 1111.00 332.00 L 1106.00 333.00 L 1099.00 342.00 L 1055.00 423.00 L 850.00 831.00 L 846.00 856.00 L 848.00 865.00 L 894.00 911.00 L 934.00 959.00 L 940.00 952.00 L 942.00 942.00 L 960.00 906.00 L 981.00 877.00 L 1088.00 457.00 L 1110.00 360.00 Z M 317.00 333.00 L 326.00 393.00 L 398.00 672.00 L 422.00 779.00 L 444.00 855.00 L 445.00 870.00 L 473.00 922.00 L 483.00 950.00 L 485.00 965.00 L 492.00 968.00 L 530.00 919.00 L 581.00 866.00 L 580.00 841.00 L 517.00 707.00 L 508.00 693.00 L 433.00 538.00 L 401.00 481.00 L 388.00 451.00 L 325.00 333.00 Z M 1155.00 199.00 L 1105.00 249.00 L 1106.00 268.00 L 1117.00 304.00 L 1123.00 305.00 L 1163.00 276.00 L 1161.00 215.00 L 1159.00 203.00 Z M 274.00 199.00 L 270.00 202.00 L 267.00 276.00 L 283.00 289.00 L 307.00 304.00 L 311.00 304.00 L 320.00 284.00 L 325.00 251.00 L 281.00 202.00 Z M 711.00 172.00 L 707.00 181.00 L 694.00 275.00 L 676.00 450.00 L 666.00 521.00 L 643.00 763.00 L 642.00 796.00 L 638.00 816.00 L 636.00 861.00 L 706.00 969.00 L 711.00 974.00 L 715.00 974.00 L 793.00 863.00 L 795.00 855.00 L 773.00 621.00 L 769.00 604.00 L 762.00 518.00 L 735.00 289.00 L 720.00 183.00 L 716.00 172.00 Z M 714.00 20.00 L 707.00 26.00 L 693.00 61.00 L 678.00 89.00 L 678.00 96.00 L 682.00 104.00 L 711.00 142.00 L 717.00 140.00 L 749.00 96.00 L 749.00 89.00 Z" fill="#a18048" fill-rule="evenodd"/>
  </svg>
  <text x="106" y="43" fill="#17130f" font-family="Georgia, 'Times New Roman', serif" font-size="32" letter-spacing="0">Sterling Hollis</text>
  <text x="109" y="67" fill="#6d6254" font-family="Arial, sans-serif" font-size="11" font-weight="700" letter-spacing="2.6">AI RETAIL ATELIER</text>
</svg>
